<?xml version="1.0" standalone="no"?>
<!DOCTYPE svg PUBLIC "-//W3C//DTD SVG 20010904//EN"
 "http://www.w3.org/TR/2001/REC-SVG-20010904/DTD/svg10.dtd">
<svg version="1.0" xmlns="http://www.w3.org/2000/svg"
 width="225.000000pt" height="225.000000pt" viewBox="0 0 225.000000 225.000000"
 preserveAspectRatio="xMidYMid meet">

<g transform="translate(0.000000,225.000000) scale(0.100000,-0.100000)"
fill="#000000" stroke="none">
<path d="M1356 2033 c-106 -32 -217 -128 -262 -227 -28 -62 -43 -134 -36 -172
5 -25 7 -26 51 -20 109 14 221 99 276 207 44 86 64 230 32 228 -7 0 -34 -7
-61 -16z"/>
<path d="M668 1605 c-148 -42 -276 -161 -335 -311 -26 -65 -27 -79 -28 -234 0
-181 13 -249 75 -401 76 -184 216 -369 321 -425 58 -31 149 -25 249 16 74 30
96 34 170 34 75 0 96 -4 176 -37 111 -45 160 -47 231 -11 91 45 225 210 311
383 35 70 36 75 18 85 -167 98 -239 211 -240 376 -1 136 51 242 157 320 l48
35 -59 56 c-139 131 -292 157 -497 85 -126 -45 -165 -45 -305 -1 -128 40 -223
50 -292 30z"/>
</g>
</svg>
